<?xml version="1.0" encoding="UTF-8"?><svg id="Layer_1" xmlns="http://www.w3.org/2000/svg" viewBox="0 0 286.22 223.69"><path d="m102.39,209.88c11.01,18.36-13.15,24.17-26.15-.98-6.28-12.49-21.63-53.01-32.39-86.7-11.5-33.91-18.43-60.99-24.97-51.79-6.68,9.18-9.86,35.99-9.85,64.1-.39,28.03,2.42,57.36-1.4,69.56-7.31,24.51-32.73,30.69-23.16-2.36,4.98-16.63,7.46-58.27,13.51-97.22C3.23,65.52,12.05,29.23,11.41,22.28c-.78-13.77,15.35-31.54,21.71-2.06,3.06,14.68,13.16,45.8,24.77,75.2,11.16,29.26,23.82,56.8,21.72,61.01-5.07,8.49,4.08-121.05,10.48-139.86,4.95-18.98,28.49-44.26,19.23-.65-10.94,43.4-19.56,175.45-6.91,193.96Z"/><path d="m259.97,205.72c-3.48,3.83-13.1,15.4-21.06,1.55-3.42-6.89-10.05-52.84-18.02-91.02-7.6-38.14-16.54-68.51-16.05-43.45.28,49.89-18.65,124.38-23.66,137.15-4.82,12.64-14.9,15.23-21.06.4-6.3-15.08-27.49-183.83-38.44-194.7-12.22-11.22,10.81-38.39,20.18-.18,9.76,38.11,28.74,137.99,28.5,138-.23.03,6.48-32.66,11.14-65.91,5.01-33.32,7.96-67.2,8.43-71.24,1.56-8.14,5.8-9.67,17.48.76,5.63,5.23,17.73,39.09,26.52,71.35,9.09,32.3,14.87,63,14.72,63.01-.34,0,10.72-29.68,14.51-60.16,4.58-30.7,1.88-62.18-7.82-70.88-17.83-17.69-3.89-39.97,20.18,1.94,13.13,20.68,16.01,63.47,8.53,103.86-6.39,40.02-23.16,77.63-24.08,79.51Z"/></svg>